<svg width="18" height="22" viewBox="0 0 18 22" fill="none" xmlns="http://www.w3.org/2000/svg">
<path d="M9.59305 21.2584L9.58205 21.2604L9.51105 21.2954L9.49105 21.2994L9.47705 21.2954L9.40605 21.2604C9.39538 21.2571 9.38738 21.2588 9.38205 21.2654L9.37805 21.2754L9.36105 21.7034L9.36605 21.7234L9.37605 21.7364L9.48005 21.8104L9.49505 21.8144L9.50705 21.8104L9.61105 21.7364L9.62305 21.7204L9.62705 21.7034L9.61005 21.2764C9.60738 21.2658 9.60172 21.2598 9.59305 21.2584ZM9.85805 21.1454L9.84505 21.1474L9.66005 21.2404L9.65005 21.2504L9.64705 21.2614L9.66505 21.6914L9.67005 21.7034L9.67805 21.7104L9.87905 21.8034C9.89172 21.8068 9.90138 21.8041 9.90805 21.7954L9.91205 21.7814L9.87805 21.1674C9.87472 21.1554 9.86805 21.1481 9.85805 21.1454ZM9.14305 21.1474C9.13864 21.1448 9.13338 21.1439 9.12835 21.145C9.12332 21.1461 9.11891 21.1491 9.11605 21.1534L9.11005 21.1674L9.07605 21.7814C9.07672 21.7934 9.08238 21.8014 9.09305 21.8054L9.10805 21.8034L9.30905 21.7104L9.31905 21.7024L9.32305 21.6914L9.34005 21.2614L9.33705 21.2494L9.32705 21.2394L9.14305 21.1474Z" fill="url(#paint0_linear_706_437)"/>
<path d="M5 3V5H2V18H16V5H13V3H16C16.5304 3 17.0391 3.21071 17.4142 3.58579C17.7893 3.96086 18 4.46957 18 5V18C18 18.5304 17.7893 19.0391 17.4142 19.4142C17.0391 19.7893 16.5304 20 16 20H2C1.46957 20 0.960859 19.7893 0.585786 19.4142C0.210714 19.0391 0 18.5304 0 18V5C0 4.46957 0.210714 3.96086 0.585786 3.58579C0.960859 3.21071 1.46957 3 2 3H5ZM9 0C9.26522 0 9.51957 0.105357 9.70711 0.292893C9.89464 0.48043 10 0.734784 10 1V11.828L11.828 10C11.9208 9.90709 12.0311 9.83338 12.1524 9.78307C12.2737 9.73276 12.4038 9.70684 12.5351 9.7068C12.6665 9.70675 12.7966 9.73258 12.9179 9.7828C13.0393 9.83302 13.1496 9.90666 13.2425 9.9995C13.3354 10.0923 13.4091 10.2026 13.4594 10.3239C13.5097 10.4452 13.5357 10.5753 13.5357 10.7066C13.5357 10.838 13.5099 10.9681 13.4597 11.0894C13.4095 11.2108 13.3358 11.3211 13.243 11.414L9.883 14.773C9.64861 15.0072 9.33083 15.1387 8.9995 15.1387C8.66817 15.1387 8.35039 15.0072 8.116 14.773L4.757 11.414C4.66416 11.3211 4.59052 11.2108 4.5403 11.0894C4.49008 10.9681 4.46425 10.838 4.4643 10.7066C4.46434 10.5753 4.49026 10.4452 4.54057 10.3239C4.59088 10.2026 4.66459 10.0923 4.7575 9.9995C4.85041 9.90666 4.9607 9.83302 5.08207 9.7828C5.20343 9.73258 5.3335 9.70675 5.46485 9.7068C5.5962 9.70684 5.72626 9.73276 5.84759 9.78307C5.96892 9.83338 6.07916 9.90709 6.172 10L8 11.828V1C8 0.734784 8.10536 0.48043 8.29289 0.292893C8.48043 0.105357 8.73478 0 9 0Z" fill="url(#paint1_linear_706_437)"/>
<defs>
<linearGradient id="paint0_linear_706_437" x1="9.49405" y1="21.1445" x2="9.49405" y2="21.8144" gradientUnits="userSpaceOnUse">
<stop stop-color="#B73601"/>
<stop offset="1" stop-color="#FC7139"/>
</linearGradient>
<linearGradient id="paint1_linear_706_437" x1="9" y1="0" x2="9" y2="20" gradientUnits="userSpaceOnUse">
<stop stop-color="#B73601"/>
<stop offset="1" stop-color="#FC7139"/>
</linearGradient>
</defs>
</svg>
