<svg width="20" height="18" viewBox="0 0 20 18" fill="none" xmlns="http://www.w3.org/2000/svg">
<path d="M18.9062 16.0031L14.3047 11.8617C15.4453 10.6102 16.1328 9.00703 16.1328 7.25977C16.1328 3.25195 12.5195 0 8.06641 0C3.60938 0 0 3.25195 0 7.25977C0 11.2676 3.60938 14.5195 8.06641 14.5195C10.0078 14.5195 11.7852 13.9043 13.1758 12.8777L17.7773 17.0156C18.0898 17.2969 18.5938 17.2969 18.9062 17.0156C19.2188 16.7379 19.2188 16.2809 18.9062 16.0031ZM8.06641 13.0746C4.5 13.0746 1.60156 10.466 1.60156 7.25977C1.60156 4.05352 4.5 1.44141 8.06641 1.44141C11.6289 1.44141 14.5312 4.05352 14.5312 7.25977C14.5312 10.466 11.6289 13.0746 8.06641 13.0746Z" fill="url(#paint0_linear_706_420)"/>
<defs>
<linearGradient id="paint0_linear_706_420" x1="0" y1="8.61328" x2="19.1406" y2="8.61328" gradientUnits="userSpaceOnUse">
<stop stop-color="#FF743C"/>
<stop offset="0.775" stop-color="#B73601"/>
</linearGradient>
</defs>
</svg>
