<svg width="20" height="20" viewBox="0 0 20 20" fill="none" xmlns="http://www.w3.org/2000/svg">
<path d="M0 7C0 5.114 -5.96046e-08 4.172 0.586 3.586C1.172 3 2.114 3 4 3H16C17.886 3 18.828 3 19.414 3.586C20 4.172 20 5.114 20 7C20 7.471 20 7.707 19.854 7.854C19.707 8 19.47 8 19 8H1C0.529 8 0.293 8 0.146 7.854C-8.9407e-08 7.707 0 7.47 0 7Z" fill="black"/>
<path fill-rule="evenodd" clip-rule="evenodd" d="M0 16C0 17.886 -5.96046e-08 18.828 0.586 19.414C1.172 20 2.114 20 4 20H16C17.886 20 18.828 20 19.414 19.414C20 18.828 20 17.886 20 16V11C20 10.529 20 10.293 19.854 10.146C19.707 10 19.47 10 19 10H1C0.529 10 0.293 10 0.146 10.146C-8.9407e-08 10.293 0 10.53 0 11V16ZM5 13C5 12.529 5 12.293 5.146 12.146C5.293 12 5.53 12 6 12H8C8.471 12 8.707 12 8.854 12.146C9 12.293 9 12.529 9 13C9 13.471 9 13.707 8.854 13.854C8.707 14 8.47 14 8 14H6C5.529 14 5.293 14 5.146 13.854C5 13.707 5 13.47 5 13ZM5.146 16.146C5 16.293 5 16.53 5 17C5 17.47 5 17.707 5.146 17.854C5.293 18 5.53 18 6 18H8C8.471 18 8.707 18 8.854 17.854C9 17.707 9 17.47 9 17C9 16.53 9 16.293 8.854 16.146C8.707 16 8.47 16 8 16H6C5.529 16 5.293 16 5.146 16.146ZM11 13C11 12.529 11 12.293 11.146 12.146C11.293 12 11.53 12 12 12H14C14.471 12 14.707 12 14.854 12.146C15 12.293 15 12.529 15 13C15 13.471 15 13.707 14.854 13.854C14.707 14 14.47 14 14 14H12C11.529 14 11.293 14 11.146 13.854C11 13.707 11 13.47 11 13ZM11.146 16.146C11 16.293 11 16.53 11 17C11 17.47 11 17.707 11.146 17.854C11.293 18 11.529 18 12 18H14C14.471 18 14.707 18 14.854 17.854C15 17.707 15 17.47 15 17C15 16.53 15 16.293 14.854 16.146C14.707 16 14.47 16 14 16H12C11.529 16 11.293 16 11.146 16.146Z" fill="black"/>
<path d="M5 1V4M15 1V4" stroke="black" stroke-width="2" stroke-linecap="round"/>
</svg>
