<svg width="65" height="64" viewBox="0 0 65 64" fill="none" xmlns="http://www.w3.org/2000/svg">
<rect x="9" y="18" width="46" height="41" fill="white"/>
<path fill-rule="evenodd" clip-rule="evenodd" d="M11.1406 57.894C15.9634 58.0564 23.0863 58.2188 32.3438 58.2188C41.6027 58.2188 48.7255 58.0564 53.5469 57.894C53.7438 54.5877 53.9062 50.0855 53.9062 44.2593C53.9062 37.0905 53.659 32.4301 53.4089 29.5421C53.1803 26.9288 51.52 24.8875 49.0274 24.4491C45.9799 23.9115 40.7905 23.3595 32.3438 23.3595C23.897 23.3595 18.7091 23.9115 15.6601 24.4491C13.1675 24.8875 11.5057 26.9288 11.2786 29.5421C11.0271 32.4315 10.7812 37.089 10.7812 44.2607C10.7812 50.0869 10.9437 54.5877 11.1406 57.8954M37.4613 1.0854C35.8501 0.369758 34.1067 0 32.3438 0C30.5808 0 28.8374 0.369758 27.2263 1.0854C16.7325 5.74865 8.80037 11.8609 4.692 15.3971C2.03262 17.6871 0.602313 20.9387 0.4255 24.2996C0.14975 29.5348 0.00787013 34.7762 0 40.0186C0 46.0331 0.21275 51.7817 0.399625 55.6644C0.493523 57.7324 1.36054 59.6898 2.829 61.1489C4.29747 62.6081 6.26031 63.4626 8.32888 63.5433C13.0841 63.7345 21.1816 63.9688 32.3438 63.9688C43.5059 63.9688 51.6034 63.7345 56.3586 63.5433C58.4272 63.4626 60.39 62.6081 61.8585 61.1489C63.327 59.6898 64.194 57.7324 64.2879 55.6644C64.4747 51.7831 64.6875 46.0331 64.6875 40.0186C64.6875 33.7224 64.4546 27.9724 64.262 24.2996C64.0852 20.9401 62.6563 17.6871 59.9955 15.3971C55.8886 11.8609 47.955 5.74865 37.4613 1.0854ZM26.1079 31.076C26.1884 29.7592 27.0135 28.7803 28.2124 28.638C29.1956 28.523 30.6446 28.4238 32.7333 28.4238C34.822 28.4238 36.271 28.523 37.2542 28.6394C38.4531 28.7803 39.2797 29.7606 39.3602 31.076C39.4076 31.8608 39.445 32.9131 39.445 34.296C39.445 35.6788 39.4076 36.7311 39.3587 37.516C39.2797 38.8327 38.4531 39.8131 37.2542 39.954C36.271 40.069 34.822 40.1681 32.7333 40.1681C30.6446 40.1681 29.1971 40.0704 28.2124 39.954C27.0135 39.8131 26.1884 38.8327 26.1079 37.516C26.0471 36.4437 26.0188 35.3699 26.0231 34.296C26.0231 32.9131 26.059 31.8608 26.1079 31.076ZM35.7176 45.8923C35.7981 44.577 36.6232 43.5966 37.8235 43.4557C38.8068 43.3407 40.2558 43.2401 42.3444 43.2401C44.4331 43.2401 45.8807 43.3407 46.8654 43.4557C48.0643 43.5966 48.8894 44.577 48.9699 45.8923C49.0188 46.6786 49.0547 47.7294 49.0547 49.1123C49.0547 50.4951 49.0188 51.5474 48.9699 52.3323C48.8894 53.649 48.0643 54.6294 46.8654 54.7703C45.8821 54.8867 44.4331 54.9859 42.3444 54.9859C40.2558 54.9859 38.8068 54.8867 37.8235 54.7703C36.6246 54.6294 35.7981 53.649 35.7176 52.3337C35.6573 51.2615 35.6295 50.1876 35.6342 49.1137C35.6342 47.7294 35.6701 46.6771 35.7176 45.8923ZM18.6056 43.4557C17.4067 43.5966 16.5816 44.577 16.5011 45.8923C16.4398 46.9645 16.411 48.0383 16.4148 49.1123C16.4148 50.4966 16.4522 51.5474 16.5011 52.3323C16.5816 53.649 17.4067 54.6294 18.6056 54.7703C19.5888 54.8867 21.0378 54.9859 23.1265 54.9859C25.2152 54.9859 26.6642 54.8867 27.6474 54.7703C28.8463 54.6294 29.6729 53.649 29.7534 52.3337C29.8008 51.5474 29.8368 50.4966 29.8368 49.1137C29.8368 47.7308 29.8008 46.6786 29.7534 45.8937C29.6729 44.577 28.8477 43.5966 27.6474 43.4557C26.6642 43.3407 25.2152 43.2401 23.1265 43.2401C21.0378 43.2401 19.5903 43.3407 18.6056 43.4557Z" fill="url(#paint0_linear_1183_534)"/>
<defs>
<linearGradient id="paint0_linear_1183_534" x1="32.3438" y1="0" x2="32.3438" y2="63.9688" gradientUnits="userSpaceOnUse">
<stop stop-color="#FE6705"/>
<stop offset="1" stop-color="#E3802A"/>
</linearGradient>
</defs>
</svg>
