<svg width="50" height="63" viewBox="0 0 50 63" fill="none" xmlns="http://www.w3.org/2000/svg">
<path d="M24.8006 0C14.663 0 6.35498 8.4168 6.35498 18.6896C6.35498 22.6699 7.60614 26.3693 9.72344 29.4097L22.5494 51.9403C24.3455 54.3249 25.5396 53.8719 27.0332 51.8144L41.1804 27.3514C41.4656 26.826 41.69 26.2666 41.8853 25.6952C42.7827 23.4721 43.2444 21.0924 43.2444 18.6896C43.245 8.4168 34.9395 0 24.8006 0ZM24.8006 8.757C30.2603 8.757 34.6016 13.1582 34.6016 18.6896C34.6016 24.221 30.2603 28.6209 24.8006 28.6209C19.3415 28.6209 14.9984 24.2222 14.9984 18.6902C14.9984 13.1582 19.3415 8.75763 24.8 8.75763" fill="url(#paint0_linear_1183_509)"/>
<path d="M36.5261 30.8125L36.4963 30.8919L36.5223 30.8194L36.5261 30.8125ZM14.8837 43.5064C6.1256 44.7638 0 47.7721 0 52.2004C0 58.1652 10.235 63.0005 24.8 63.0005C39.365 63.0005 49.6 58.1652 49.6 52.2004C49.6 47.7721 43.475 44.7638 34.7175 43.5064L33.5042 45.6055C40.1047 46.536 44.64 48.4916 44.64 50.7608C44.64 53.9423 35.7573 56.5209 24.8 56.5209C13.8427 56.5209 4.96 53.9423 4.96 50.7608C4.95938 48.4991 9.46492 46.5455 16.0859 45.6112L14.8837 43.5064Z" fill="url(#paint1_linear_1183_509)"/>
<defs>
<linearGradient id="paint0_linear_1183_509" x1="24.7997" y1="0" x2="24.7997" y2="53.5502" gradientUnits="userSpaceOnUse">
<stop stop-color="#FC6806"/>
<stop offset="1" stop-color="#E3802A"/>
</linearGradient>
<linearGradient id="paint1_linear_1183_509" x1="24.8" y1="30.8125" x2="24.8" y2="63.0005" gradientUnits="userSpaceOnUse">
<stop stop-color="#FC6806"/>
<stop offset="1" stop-color="#E3802A"/>
</linearGradient>
</defs>
</svg>
