<svg width="14" height="14" viewBox="0 0 14 14" fill="none" xmlns="http://www.w3.org/2000/svg">
<path d="M9.78542 2.82131L11.9778 5.11199C12.0701 5.2085 12.0701 5.36595 11.9778 5.46245L6.66944 11.0088L4.41389 11.2704C4.1125 11.306 3.85729 11.0393 3.89132 10.7244L4.14167 8.36771L9.45 2.82131C9.54236 2.72481 9.69306 2.72481 9.78542 2.82131ZM13.7229 2.23975L12.5368 1.00045C12.1674 0.614434 11.567 0.614434 11.1951 1.00045L10.3347 1.89945C10.2424 1.99595 10.2424 2.15341 10.3347 2.24991L12.5271 4.54059C12.6194 4.63709 12.7701 4.63709 12.8625 4.54059L13.7229 3.64159C14.0924 3.25304 14.0924 2.62576 13.7229 2.23975ZM9.33333 9.50035V12.0856H1.55556V3.95903H7.14097C7.21875 3.95903 7.29167 3.92602 7.34757 3.87015L8.31979 2.85432C8.50451 2.66132 8.37326 2.33372 8.11319 2.33372H1.16667C0.522569 2.33372 0 2.87972 0 3.5527V12.4919C0 13.1649 0.522569 13.7109 1.16667 13.7109H9.72222C10.3663 13.7109 10.8889 13.1649 10.8889 12.4919V8.48453C10.8889 8.21279 10.5753 8.0782 10.3906 8.26866L9.4184 9.28449C9.36493 9.3429 9.33333 9.41908 9.33333 9.50035Z" fill="url(#paint0_linear_1133_838)"/>
<defs>
<linearGradient id="paint0_linear_1133_838" x1="7" y1="0.710937" x2="7" y2="13.7109" gradientUnits="userSpaceOnUse">
<stop stop-color="#DC610B"/>
<stop offset="1" stop-color="#F47715"/>
</linearGradient>
</defs>
</svg>
