<svg width="20" height="22" viewBox="0 0 20 22" fill="none" xmlns="http://www.w3.org/2000/svg">
<path fill-rule="evenodd" clip-rule="evenodd" d="M5.368 7.52025C5.782 7.52025 6.118 7.85625 6.118 8.27025C6.118 8.68425 5.782 9.02025 5.368 9.02025H4.435C2.816 9.02025 1.5 10.3362 1.5 11.9542V16.8292C1.5 18.4482 2.816 19.7642 4.435 19.7642H15.565C17.183 19.7642 18.5 18.4482 18.5 16.8292V11.9452C18.5 10.3322 17.188 9.02025 15.576 9.02025H14.633C14.219 9.02025 13.883 8.68425 13.883 8.27025C13.883 7.85625 14.219 7.52025 14.633 7.52025H15.576C18.015 7.52025 20 9.50525 20 11.9452V16.8292C20 19.2752 18.01 21.2642 15.565 21.2642H4.435C1.99 21.2642 0 19.2752 0 16.8292V11.9542C0 9.50925 1.99 7.52025 4.435 7.52025H5.368ZM10.5306 0.947846L13.4466 3.87585C13.7386 4.16985 13.7376 4.64385 13.4446 4.93585C13.1506 5.22785 12.6766 5.22785 12.3846 4.93385L10.749 3.2926L10.7496 14.2671H9.2496L9.249 3.2926L7.6156 4.93385C7.4696 5.08185 7.2766 5.15485 7.0846 5.15485C6.8936 5.15485 6.7016 5.08185 6.5556 4.93585C6.2626 4.64385 6.2606 4.16985 6.5536 3.87585L9.4686 0.947846C9.7496 0.664846 10.2496 0.664846 10.5306 0.947846Z" fill="#26203B"/>
</svg>
